<svg width="512" height="512" viewBox="0 0 512 512" fill="none" xmlns="http://www.w3.org/2000/svg">
<rect width="512" height="512" fill="black"/>
<path d="M89.288 376.88C89.288 366.64 91.1653 357.083 94.92 348.208C98.6747 339.333 103.795 331.653 110.28 325.168C117.107 318.683 124.957 313.563 133.832 309.808C142.707 305.712 152.093 303.664 161.992 303.664H328.904C339.144 303.664 348.701 305.712 357.576 309.808C366.451 313.563 374.131 318.683 380.616 325.168C387.101 331.653 392.221 339.333 395.976 348.208C399.731 357.083 401.608 366.64 401.608 376.88C401.608 386.779 399.731 396.165 395.976 405.04C392.221 413.915 387.101 421.765 380.616 428.592C374.131 435.077 366.451 440.197 357.576 443.952C348.701 447.707 339.144 449.584 328.904 449.584H161.992C152.093 449.584 142.707 447.707 133.832 443.952C124.957 440.197 117.107 435.077 110.28 428.592C103.795 421.765 98.6747 413.915 94.92 405.04C91.1653 396.165 89.288 386.779 89.288 376.88ZM77 267.312V64.048H134.344V116.784H212.68V64.048H270.024V267.312H77ZM336.072 273.456V62H393.416V130.608H435.4V186.416H393.416V273.456H336.072ZM144.584 376.88C144.584 382.341 146.291 387.291 149.704 391.728C153.117 395.824 157.555 397.872 163.016 397.872H327.88C333.341 397.872 337.779 395.824 341.192 391.728C344.605 387.291 346.312 382.341 346.312 376.88C346.312 371.419 344.605 366.469 341.192 362.032C337.779 357.595 333.341 355.376 327.88 355.376H163.016C157.555 355.376 153.117 357.595 149.704 362.032C146.291 366.469 144.584 371.419 144.584 376.88ZM212.68 216.112V166.448H134.344V216.112H212.68Z" fill="white"/>
</svg>
