<svg width="128" height="128" viewBox="0 0 128 128" fill="none" xmlns="http://www.w3.org/2000/svg">
<rect width="128" height="128" fill="black"/>
<path d="M22.322 94.22C22.322 91.66 22.7913 89.2707 23.73 87.052C24.6687 84.8333 25.9487 82.9133 27.57 81.292C29.2767 79.6707 31.2393 78.3907 33.458 77.452C35.6767 76.428 38.0233 75.916 40.498 75.916H82.226C84.786 75.916 87.1753 76.428 89.394 77.452C91.6127 78.3907 93.5327 79.6707 95.154 81.292C96.7753 82.9133 98.0553 84.8333 98.994 87.052C99.9327 89.2707 100.402 91.66 100.402 94.22C100.402 96.6947 99.9327 99.0413 98.994 101.26C98.0553 103.479 96.7753 105.441 95.154 107.148C93.5327 108.769 91.6127 110.049 89.394 110.988C87.1753 111.927 84.786 112.396 82.226 112.396H40.498C38.0233 112.396 35.6767 111.927 33.458 110.988C31.2393 110.049 29.2767 108.769 27.57 107.148C25.9487 105.441 24.6687 103.479 23.73 101.26C22.7913 99.0413 22.322 96.6947 22.322 94.22ZM19.25 66.828V16.012H33.586V29.196H53.17V16.012H67.506V66.828H19.25ZM84.018 68.364V15.5H98.354V32.652H108.85V46.604H98.354V68.364H84.018ZM36.146 94.22C36.146 95.5853 36.5727 96.8227 37.426 97.932C38.2793 98.956 39.3887 99.468 40.754 99.468H81.97C83.3353 99.468 84.4447 98.956 85.298 97.932C86.1513 96.8227 86.578 95.5853 86.578 94.22C86.578 92.8547 86.1513 91.6173 85.298 90.508C84.4447 89.3987 83.3353 88.844 81.97 88.844H40.754C39.3887 88.844 38.2793 89.3987 37.426 90.508C36.5727 91.6173 36.146 92.8547 36.146 94.22ZM53.17 54.028V41.612H33.586V54.028H53.17Z" fill="white"/>
</svg>
